<?xml version="1.0" encoding="UTF-8" standalone="no"?>
<svg
   xmlns:dc="http://purl.org/dc/elements/1.1/"
   xmlns:cc="http://creativecommons.org/ns#"
   xmlns:rdf="http://www.w3.org/1999/02/22-rdf-syntax-ns#"
   xmlns:svg="http://www.w3.org/2000/svg"
   xmlns="http://www.w3.org/2000/svg"
   xmlns:sodipodi="http://sodipodi.sourceforge.net/DTD/sodipodi-0.dtd"
   xmlns:inkscape="http://www.inkscape.org/namespaces/inkscape"
   inkscape:version="1.0 (4035a4f, 2020-05-01)"
   sodipodi:docname="ICML Logo 2018.svg"
   viewBox="0 0 276.85013 95.665329"
   height="95.665329"
   width="276.85013"
   xml:space="preserve"
   id="svg604"
   version="1.1"><metadata
     id="metadata610"><rdf:RDF><cc:Work
         rdf:about=""><dc:format>image/svg+xml</dc:format><dc:type
           rdf:resource="http://purl.org/dc/dcmitype/StillImage" /><dc:title></dc:title></cc:Work></rdf:RDF></metadata><defs
     id="defs608"><clipPath
       id="clipPath624"
       clipPathUnits="userSpaceOnUse"><path
         id="path622"
         d="M 0,108 H 216 V 0 H 0 Z" /></clipPath></defs><sodipodi:namedview
     inkscape:current-layer="g612"
     inkscape:window-maximized="0"
     inkscape:window-y="119"
     inkscape:window-x="151"
     inkscape:cy="47.832668"
     inkscape:cx="138.42506"
     inkscape:zoom="2.0978231"
     fit-margin-bottom="4"
     fit-margin-right="4"
     fit-margin-left="4"
     fit-margin-top="4"
     lock-margins="true"
     showgrid="false"
     id="namedview606"
     inkscape:window-height="480"
     inkscape:window-width="763"
     inkscape:pageshadow="2"
     inkscape:pageopacity="0"
     guidetolerance="10"
     gridtolerance="10"
     objecttolerance="10"
     borderopacity="1"
     bordercolor="#666666"
     pagecolor="#ffffff" /><g
     transform="matrix(1.3333333,0,0,-1.3333333,-5.4037331,119.5584)"
     inkscape:label="ICML Logo 2018"
     inkscape:groupmode="layer"
     id="g612"><g
       transform="translate(102.7295,81.3989)"
       id="g614"><path
         id="path616"
         style="fill:#100f0d;fill-opacity:1;fill-rule:nonzero;stroke:none"
         d="m 0,0 v -5.525 h -2.902 v -20.64 H 0 v -5.524 h -13.62 v 5.524 h 2.903 v 20.64 H -13.62 V 0 Z" /></g><g
       id="g618"><g
         clip-path="url(#clipPath624)"
         id="g620"><g
           transform="translate(132.584,50.8369)"
           id="g626"><path
             id="path628"
             style="fill:#100f0d;fill-opacity:1;fill-rule:nonzero;stroke:none"
             d="m 0,0 c -2.532,-1.12 -5.839,-1.68 -9.919,-1.68 -5.322,0 -9.508,1.429 -12.557,4.287 -3.047,2.858 -4.572,6.667 -4.572,11.425 0,5.068 1.714,9.178 5.142,12.331 3.427,3.153 7.874,4.729 13.342,4.729 3.386,0 6.242,-0.39 8.564,-1.171 v -6.873 c -2.322,1.267 -4.968,1.901 -7.936,1.901 -3.257,0 -5.886,-0.936 -7.886,-2.806 -2,-1.872 -3,-4.406 -3,-7.602 0,-3.065 0.943,-5.507 2.831,-7.326 1.887,-1.819 4.427,-2.729 7.62,-2.729 3.049,0 5.839,0.678 8.371,2.033 z" /></g><g
           transform="translate(178.1621,49.71)"
           id="g630"><path
             id="path632"
             style="fill:#100f0d;fill-opacity:1;fill-rule:nonzero;stroke:none"
             d="m 0,0 h -7.717 v 18.96 c 0,2.048 0.097,4.31 0.29,6.784 H -7.62 C -8.023,23.8 -8.387,22.4 -8.709,21.546 L -16.838,0 h -6.387 l -8.273,21.325 c -0.227,0.574 -0.59,2.047 -1.089,4.419 h -0.218 c 0.209,-3.123 0.315,-5.863 0.315,-8.22 V 0 h -7.04 v 31.689 h 11.443 l 7.088,-18.784 c 0.564,-1.502 0.976,-3.012 1.234,-4.53 h 0.145 c 0.435,1.753 0.895,3.278 1.379,4.575 l 7.089,18.739 H 0 Z" /></g><g
           transform="translate(206.71,49.71)"
           id="g634"><path
             id="path636"
             style="fill:#100f0d;fill-opacity:1;fill-rule:nonzero;stroke:none"
             d="m 0,0 h -20.66 v 31.689 h 7.814 V 5.79 H 0 Z" /></g><path
           id="path638"
           style="fill:#100f0d;fill-opacity:1;fill-rule:nonzero;stroke:none"
           d="m 89.709,41.631 h 0.708 v -7.08 h -0.708 z" /><g
           transform="translate(91.7666,39.7842)"
           id="g640"><path
             id="path642"
             style="fill:#100f0d;fill-opacity:1;fill-rule:nonzero;stroke:none"
             d="m 0,0 h 0.67 v -0.67 h 0.018 c 0.202,0.316 0.718,0.804 1.608,0.804 0.641,0 1.177,-0.162 1.655,-0.641 0.393,-0.383 0.651,-0.985 0.651,-1.847 v -2.879 h -0.67 v 2.879 c 0,0.679 -0.21,1.158 -0.497,1.435 -0.364,0.355 -0.842,0.45 -1.139,0.45 -0.297,0 -0.775,-0.095 -1.139,-0.45 C 0.87,-1.196 0.66,-1.675 0.67,-2.354 V -5.233 H 0 Z" /></g><g
           transform="translate(98.2168,39.1816)"
           id="g644"><path
             id="path646"
             style="fill:#100f0d;fill-opacity:1;fill-rule:nonzero;stroke:none"
             d="M 0,0 H -1.101 V 0.603 H 0 V 2.449 H 0.67 V 0.603 H 1.923 V 0 H 0.67 V -4.631 H 0 Z" /></g><g
           transform="translate(105.3643,37.5264)"
           id="g648"><path
             id="path650"
             style="fill:#100f0d;fill-opacity:1;fill-rule:nonzero;stroke:none"
             d="M 0,0 C -0.211,1.234 -1.215,1.789 -2.048,1.789 -2.87,1.789 -3.894,1.234 -4.085,0 Z m -4.085,-0.603 c 0.048,-1.024 1.004,-1.894 2.028,-1.894 0.956,0.018 1.636,0.583 1.875,1.234 H 0.526 C 0.162,-2.306 -0.842,-3.1 -2.048,-3.1 c -1.464,0 -2.726,1.186 -2.726,2.737 0,1.482 1.196,2.726 2.717,2.755 1.148,-0.01 1.961,-0.689 2.334,-1.34 0.355,-0.565 0.431,-1.148 0.402,-1.655 z" /></g><g
           transform="translate(107.0693,39.7842)"
           id="g652"><path
             id="path654"
             style="fill:#100f0d;fill-opacity:1;fill-rule:nonzero;stroke:none"
             d="m 0,0 h 0.67 v -0.756 h 0.018 c 0.316,0.736 0.91,0.852 1.474,0.89 V -0.574 C 1.693,-0.612 1.291,-0.784 1.033,-1.091 0.804,-1.378 0.67,-1.751 0.67,-2.172 V -5.233 H 0 Z" /></g><g
           transform="translate(110.1504,39.7842)"
           id="g656"><path
             id="path658"
             style="fill:#100f0d;fill-opacity:1;fill-rule:nonzero;stroke:none"
             d="m 0,0 h 0.67 v -0.67 h 0.018 c 0.202,0.316 0.718,0.804 1.608,0.804 0.641,0 1.177,-0.162 1.655,-0.641 0.393,-0.383 0.651,-0.985 0.651,-1.847 v -2.879 h -0.67 v 2.879 c 0,0.679 -0.21,1.158 -0.497,1.435 -0.364,0.355 -0.842,0.45 -1.139,0.45 -0.297,0 -0.775,-0.095 -1.139,-0.45 C 0.87,-1.196 0.66,-1.675 0.67,-2.354 V -5.233 H 0 Z" /></g><g
           transform="translate(118.5811,35.0293)"
           id="g660"><path
             id="path662"
             style="fill:#100f0d;fill-opacity:1;fill-rule:nonzero;stroke:none"
             d="M 0,0 C 1.129,0 2.095,0.909 2.095,2.134 2.095,3.281 1.205,4.286 0,4.286 -1.148,4.286 -2.144,3.454 -2.144,2.124 -2.144,0.957 -1.282,0 0,0 M 2.727,-0.479 H 2.057 V 0.439 H 2.037 C 1.464,-0.421 0.545,-0.603 0,-0.603 c -1.646,0 -2.813,1.253 -2.813,2.755 0,1.397 1.1,2.737 2.813,2.737 0.564,0 1.482,-0.182 2.037,-1.053 h 0.02 v 0.919 h 0.67 z" /></g><g
           transform="translate(123.1377,39.1816)"
           id="g664"><path
             id="path666"
             style="fill:#100f0d;fill-opacity:1;fill-rule:nonzero;stroke:none"
             d="M 0,0 H -1.101 V 0.603 H 0 V 2.449 H 0.67 V 0.603 H 1.923 V 0 H 0.67 V -4.631 H 0 Z" /></g><path
           id="path668"
           style="fill:#100f0d;fill-opacity:1;fill-rule:nonzero;stroke:none"
           d="m 125.77,39.784 h 0.67 v -5.233 h -0.67 z m 0,1.847 h 0.67 v -1.206 h -0.67 z" /><g
           transform="translate(130.1992,35.0293)"
           id="g670"><path
             id="path672"
             style="fill:#100f0d;fill-opacity:1;fill-rule:nonzero;stroke:none"
             d="M 0,0 C 1.015,0 2.066,0.804 2.066,2.172 2.066,3.549 0.899,4.286 0,4.286 -0.956,4.286 -2.066,3.502 -2.066,2.114 -2.066,0.899 -1.081,0 0,0 m -0.009,4.889 c 1.55,0 2.745,-1.311 2.745,-2.746 0,-1.425 -1.176,-2.746 -2.745,-2.746 -1.531,0 -2.727,1.291 -2.727,2.707 0,1.656 1.349,2.785 2.727,2.785" /></g><g
           transform="translate(133.9521,39.7842)"
           id="g674"><path
             id="path676"
             style="fill:#100f0d;fill-opacity:1;fill-rule:nonzero;stroke:none"
             d="m 0,0 h 0.67 v -0.67 h 0.018 c 0.202,0.316 0.718,0.804 1.608,0.804 0.641,0 1.177,-0.162 1.655,-0.641 0.393,-0.383 0.651,-0.985 0.651,-1.847 v -2.879 h -0.67 v 2.879 c 0,0.679 -0.21,1.158 -0.497,1.435 -0.364,0.355 -0.842,0.45 -1.139,0.45 -0.297,0 -0.775,-0.095 -1.139,-0.45 C 0.87,-1.196 0.66,-1.675 0.67,-2.354 V -5.233 H 0 Z" /></g><g
           transform="translate(142.3818,35.0293)"
           id="g678"><path
             id="path680"
             style="fill:#100f0d;fill-opacity:1;fill-rule:nonzero;stroke:none"
             d="M 0,0 C 1.129,0 2.095,0.909 2.095,2.134 2.095,3.281 1.205,4.286 0,4.286 -1.148,4.286 -2.144,3.454 -2.144,2.124 -2.144,0.957 -1.282,0 0,0 M 2.727,-0.479 H 2.057 V 0.439 H 2.037 C 1.464,-0.421 0.545,-0.603 0,-0.603 c -1.646,0 -2.813,1.253 -2.813,2.755 0,1.397 1.1,2.737 2.813,2.737 0.564,0 1.482,-0.182 2.037,-1.053 h 0.02 v 0.919 h 0.67 z" /></g><path
           id="path682"
           style="fill:#100f0d;fill-opacity:1;fill-rule:nonzero;stroke:none"
           d="m 146.326,41.631 h 0.67 v -7.08 h -0.67 z" /><g
           transform="translate(157.6445,36.4072)"
           id="g684"><path
             id="path686"
             style="fill:#100f0d;fill-opacity:1;fill-rule:nonzero;stroke:none"
             d="m 0,0 c -0.756,-1.388 -2.124,-1.98 -3.262,-1.98 -1.98,0 -3.703,1.559 -3.703,3.654 0,2.096 1.675,3.664 3.694,3.664 1.817,0 2.965,-1.273 3.243,-1.933 h -0.794 c -0.776,1.158 -2.029,1.292 -2.459,1.292 -1.656,0 -2.976,-1.454 -2.976,-3.033 0,-1.655 1.454,-3.004 2.986,-3.004 0.353,0 1.511,0.048 2.477,1.34 z" /></g><g
           transform="translate(161.1875,35.0293)"
           id="g688"><path
             id="path690"
             style="fill:#100f0d;fill-opacity:1;fill-rule:nonzero;stroke:none"
             d="M 0,0 C 1.015,0 2.066,0.804 2.066,2.172 2.066,3.549 0.899,4.286 0,4.286 -0.956,4.286 -2.066,3.502 -2.066,2.114 -2.066,0.899 -1.081,0 0,0 m -0.009,4.889 c 1.55,0 2.745,-1.311 2.745,-2.746 0,-1.425 -1.176,-2.746 -2.745,-2.746 -1.531,0 -2.727,1.291 -2.727,2.707 0,1.656 1.349,2.785 2.727,2.785" /></g><g
           transform="translate(164.9404,39.7842)"
           id="g692"><path
             id="path694"
             style="fill:#100f0d;fill-opacity:1;fill-rule:nonzero;stroke:none"
             d="m 0,0 h 0.67 v -0.67 h 0.018 c 0.202,0.316 0.718,0.804 1.608,0.804 0.641,0 1.177,-0.162 1.655,-0.641 0.393,-0.383 0.651,-0.985 0.651,-1.847 v -2.879 h -0.67 v 2.879 c 0,0.679 -0.21,1.158 -0.497,1.435 -0.364,0.355 -0.842,0.45 -1.139,0.45 -0.297,0 -0.775,-0.095 -1.139,-0.45 C 0.87,-1.196 0.66,-1.675 0.67,-2.354 V -5.233 H 0 Z" /></g><g
           transform="translate(171.1514,39.1816)"
           id="g696"><path
             id="path698"
             style="fill:#100f0d;fill-opacity:1;fill-rule:nonzero;stroke:none"
             d="M 0,0 H -0.813 V 0.603 H 0 c 0.019,0.726 0.076,1.951 2.009,1.97 V 1.951 C 0.65,1.951 0.67,1.091 0.67,0.603 H 2.009 V 0 H 0.67 V -4.631 H 0 Z" /></g><g
           transform="translate(178.2988,37.5264)"
           id="g700"><path
             id="path702"
             style="fill:#100f0d;fill-opacity:1;fill-rule:nonzero;stroke:none"
             d="M 0,0 C -0.211,1.234 -1.215,1.789 -2.048,1.789 -2.87,1.789 -3.894,1.234 -4.085,0 Z m -4.085,-0.603 c 0.048,-1.024 1.004,-1.894 2.028,-1.894 0.956,0.018 1.636,0.583 1.875,1.234 H 0.526 C 0.162,-2.306 -0.842,-3.1 -2.048,-3.1 c -1.464,0 -2.726,1.186 -2.726,2.737 0,1.482 1.196,2.726 2.717,2.755 1.148,-0.01 1.961,-0.689 2.334,-1.34 0.355,-0.565 0.431,-1.148 0.403,-1.655 z" /></g><g
           transform="translate(180.0039,39.7842)"
           id="g704"><path
             id="path706"
             style="fill:#100f0d;fill-opacity:1;fill-rule:nonzero;stroke:none"
             d="m 0,0 h 0.67 v -0.756 h 0.018 c 0.316,0.736 0.91,0.852 1.474,0.89 V -0.574 C 1.693,-0.612 1.291,-0.784 1.033,-1.091 0.804,-1.378 0.67,-1.751 0.67,-2.172 V -5.233 H 0 Z" /></g><g
           transform="translate(187.3613,37.5264)"
           id="g708"><path
             id="path710"
             style="fill:#100f0d;fill-opacity:1;fill-rule:nonzero;stroke:none"
             d="M 0,0 C -0.211,1.234 -1.215,1.789 -2.048,1.789 -2.87,1.789 -3.894,1.234 -4.085,0 Z m -4.085,-0.603 c 0.048,-1.024 1.004,-1.894 2.028,-1.894 0.956,0.018 1.636,0.583 1.875,1.234 H 0.526 C 0.162,-2.306 -0.842,-3.1 -2.048,-3.1 c -1.464,0 -2.726,1.186 -2.726,2.737 0,1.482 1.196,2.726 2.717,2.755 1.148,-0.01 1.961,-0.689 2.334,-1.34 0.355,-0.565 0.431,-1.148 0.403,-1.655 z" /></g><g
           transform="translate(189.0664,39.7842)"
           id="g712"><path
             id="path714"
             style="fill:#100f0d;fill-opacity:1;fill-rule:nonzero;stroke:none"
             d="m 0,0 h 0.67 v -0.67 h 0.018 c 0.202,0.316 0.718,0.804 1.608,0.804 0.641,0 1.177,-0.162 1.655,-0.641 0.393,-0.383 0.651,-0.985 0.651,-1.847 v -2.879 h -0.67 v 2.879 c 0,0.679 -0.21,1.158 -0.497,1.435 -0.364,0.355 -0.842,0.45 -1.139,0.45 -0.297,0 -0.775,-0.095 -1.139,-0.45 C 0.87,-1.196 0.66,-1.675 0.67,-2.354 V -5.233 H 0 Z" /></g><g
           transform="translate(200.0898,36.0908)"
           id="g716"><path
             id="path718"
             style="fill:#100f0d;fill-opacity:1;fill-rule:nonzero;stroke:none"
             d="m 0,0 c -0.335,-0.65 -1.033,-1.664 -2.603,-1.664 -1.635,0 -2.812,1.272 -2.812,2.736 0,1.511 1.253,2.755 2.812,2.755 0.918,0 2.095,-0.459 2.603,-1.713 h -0.737 c -0.421,0.795 -1.186,1.111 -1.846,1.111 -1.024,0 -2.163,-0.766 -2.163,-2.134 0,-1.177 0.909,-2.153 2.163,-2.153 1.09,0 1.636,0.661 1.846,1.062 z" /></g><g
           transform="translate(205.6123,37.5264)"
           id="g720"><path
             id="path722"
             style="fill:#100f0d;fill-opacity:1;fill-rule:nonzero;stroke:none"
             d="M 0,0 C -0.211,1.234 -1.215,1.789 -2.048,1.789 -2.87,1.789 -3.894,1.234 -4.085,0 Z m -4.085,-0.603 c 0.048,-1.024 1.004,-1.894 2.028,-1.894 0.956,0.018 1.636,0.583 1.875,1.234 H 0.526 C 0.162,-2.306 -0.842,-3.1 -2.048,-3.1 c -1.464,0 -2.726,1.186 -2.726,2.737 0,1.482 1.196,2.726 2.717,2.755 1.148,-0.01 1.961,-0.689 2.334,-1.34 0.355,-0.565 0.431,-1.148 0.402,-1.655 z" /></g><g
           transform="translate(93.1338,23.583)"
           id="g724"><path
             id="path726"
             style="fill:#100f0d;fill-opacity:1;fill-rule:nonzero;stroke:none"
             d="M 0,0 C 1.636,0 3.042,1.33 3.042,3.014 3.042,4.669 1.674,6.047 0,6.047 -1.598,6.047 -3.033,4.745 -3.033,2.985 -3.033,1.368 -1.646,0 0,0 m 0,6.688 c 1.99,0 3.75,-1.579 3.75,-3.665 0,-2.085 -1.77,-3.664 -3.75,-3.664 -2.009,0 -3.741,1.636 -3.741,3.626 0,2.229 1.856,3.703 3.741,3.703" /></g><g
           transform="translate(97.9199,28.2998)"
           id="g728"><path
             id="path730"
             style="fill:#100f0d;fill-opacity:1;fill-rule:nonzero;stroke:none"
             d="m 0,0 h 0.67 v -0.67 h 0.018 c 0.202,0.316 0.718,0.804 1.608,0.804 0.641,0 1.177,-0.162 1.655,-0.641 0.393,-0.383 0.651,-0.985 0.651,-1.847 v -2.879 h -0.67 v 2.879 c 0,0.679 -0.21,1.158 -0.497,1.435 -0.364,0.355 -0.842,0.45 -1.139,0.45 -0.297,0 -0.775,-0.095 -1.139,-0.45 C 0.87,-1.196 0.66,-1.675 0.67,-2.354 V -5.233 H 0 Z" /></g><g
           transform="translate(106.5146,30.1465)"
           id="g732"><path
             id="path734"
             style="fill:#100f0d;fill-opacity:1;fill-rule:nonzero;stroke:none"
             d="M 0,0 H 1.09 L 3.664,-6.027 6.247,0 H 7.338 V -7.08 H 6.63 v 6.305 H 6.61 L 3.96,-7.08 H 3.357 l -2.63,6.305 H 0.708 V -7.08 H 0 Z" /></g><g
           transform="translate(117.7969,23.5449)"
           id="g736"><path
             id="path738"
             style="fill:#100f0d;fill-opacity:1;fill-rule:nonzero;stroke:none"
             d="M 0,0 C 1.129,0 2.095,0.909 2.095,2.134 2.095,3.281 1.205,4.286 0,4.286 -1.148,4.286 -2.144,3.454 -2.144,2.124 -2.144,0.957 -1.282,0 0,0 M 2.727,-0.479 H 2.057 V 0.439 H 2.037 C 1.464,-0.421 0.545,-0.603 0,-0.603 c -1.646,0 -2.813,1.253 -2.813,2.755 0,1.397 1.1,2.737 2.813,2.737 0.564,0 1.482,-0.182 2.037,-1.053 h 0.02 v 0.919 h 0.67 z" /></g><g
           transform="translate(126.9258,24.6064)"
           id="g740"><path
             id="path742"
             style="fill:#100f0d;fill-opacity:1;fill-rule:nonzero;stroke:none"
             d="m 0,0 c -0.335,-0.65 -1.033,-1.664 -2.603,-1.664 -1.635,0 -2.812,1.272 -2.812,2.736 0,1.511 1.253,2.755 2.812,2.755 0.918,0 2.095,-0.459 2.603,-1.713 h -0.737 c -0.421,0.795 -1.186,1.111 -1.846,1.111 -1.024,0 -2.163,-0.766 -2.163,-2.134 0,-1.177 0.909,-2.153 2.163,-2.153 1.09,0 1.636,0.661 1.846,1.062 z" /></g><g
           transform="translate(127.9033,30.1465)"
           id="g744"><path
             id="path746"
             style="fill:#100f0d;fill-opacity:1;fill-rule:nonzero;stroke:none"
             d="m 0,0 h 0.67 v -2.517 h 0.019 c 0.202,0.316 0.718,0.804 1.608,0.804 0.641,0 1.177,-0.162 1.655,-0.641 0.392,-0.382 0.651,-0.985 0.651,-1.846 v -2.88 h -0.67 v 2.88 c 0,0.679 -0.211,1.157 -0.498,1.434 C 3.071,-2.411 2.593,-2.315 2.297,-2.315 2,-2.315 1.521,-2.411 1.158,-2.766 0.871,-3.043 0.66,-3.521 0.67,-4.2 V -7.08 H 0 Z" /></g><path
           id="path748"
           style="fill:#100f0d;fill-opacity:1;fill-rule:nonzero;stroke:none"
           d="m 133.77,28.3 h 0.67 v -5.233 h -0.67 z m 0,1.846 h 0.67 V 28.94 h -0.67 z" /><g
           transform="translate(135.6836,28.2998)"
           id="g750"><path
             id="path752"
             style="fill:#100f0d;fill-opacity:1;fill-rule:nonzero;stroke:none"
             d="m 0,0 h 0.67 v -0.67 h 0.018 c 0.202,0.316 0.718,0.804 1.608,0.804 0.641,0 1.177,-0.162 1.655,-0.641 0.393,-0.383 0.651,-0.985 0.651,-1.847 v -2.879 h -0.67 v 2.879 c 0,0.679 -0.21,1.158 -0.497,1.435 -0.364,0.355 -0.842,0.45 -1.139,0.45 -0.297,0 -0.775,-0.095 -1.139,-0.45 C 0.87,-1.196 0.66,-1.675 0.67,-2.354 V -5.233 H 0 Z" /></g><g
           transform="translate(146.0371,26.042)"
           id="g754"><path
             id="path756"
             style="fill:#100f0d;fill-opacity:1;fill-rule:nonzero;stroke:none"
             d="M 0,0 C -0.211,1.234 -1.215,1.789 -2.048,1.789 -2.87,1.789 -3.894,1.234 -4.085,0 Z m -4.085,-0.603 c 0.048,-1.024 1.004,-1.894 2.028,-1.894 0.956,0.018 1.636,0.583 1.875,1.234 H 0.526 C 0.162,-2.306 -0.842,-3.1 -2.048,-3.1 c -1.464,0 -2.726,1.186 -2.726,2.737 0,1.482 1.196,2.726 2.717,2.755 1.148,-0.01 1.961,-0.689 2.334,-1.34 0.355,-0.565 0.431,-1.148 0.403,-1.655 z" /></g><g
           transform="translate(150.5557,30.1465)"
           id="g758"><path
             id="path760"
             style="fill:#100f0d;fill-opacity:1;fill-rule:nonzero;stroke:none"
             d="M 0,0 H 0.708 V -6.439 H 3.636 V -7.08 H 0 Z" /></g><g
           transform="translate(159.3301,26.042)"
           id="g762"><path
             id="path764"
             style="fill:#100f0d;fill-opacity:1;fill-rule:nonzero;stroke:none"
             d="M 0,0 C -0.211,1.234 -1.215,1.789 -2.048,1.789 -2.87,1.789 -3.894,1.234 -4.085,0 Z m -4.085,-0.603 c 0.048,-1.024 1.004,-1.894 2.028,-1.894 0.956,0.018 1.636,0.583 1.875,1.234 H 0.526 C 0.162,-2.306 -0.842,-3.1 -2.048,-3.1 c -1.464,0 -2.726,1.186 -2.726,2.737 0,1.482 1.196,2.726 2.717,2.755 1.148,-0.01 1.961,-0.689 2.334,-1.34 0.355,-0.565 0.431,-1.148 0.403,-1.655 z" /></g><g
           transform="translate(163.6279,23.5449)"
           id="g766"><path
             id="path768"
             style="fill:#100f0d;fill-opacity:1;fill-rule:nonzero;stroke:none"
             d="M 0,0 C 1.129,0 2.095,0.909 2.095,2.134 2.095,3.281 1.205,4.286 0,4.286 -1.148,4.286 -2.144,3.454 -2.144,2.124 -2.144,0.957 -1.282,0 0,0 M 2.727,-0.479 H 2.057 V 0.439 H 2.037 C 1.464,-0.421 0.545,-0.603 0,-0.603 c -1.646,0 -2.813,1.253 -2.813,2.755 0,1.397 1.1,2.737 2.813,2.737 0.564,0 1.482,-0.182 2.037,-1.053 h 0.02 v 0.919 h 0.67 z" /></g><g
           transform="translate(167.5723,28.2998)"
           id="g770"><path
             id="path772"
             style="fill:#100f0d;fill-opacity:1;fill-rule:nonzero;stroke:none"
             d="m 0,0 h 0.67 v -0.756 h 0.018 c 0.316,0.736 0.91,0.852 1.474,0.89 V -0.574 C 1.693,-0.612 1.291,-0.784 1.033,-1.091 0.804,-1.378 0.67,-1.751 0.67,-2.172 V -5.233 H 0 Z" /></g><g
           transform="translate(170.6533,28.2998)"
           id="g774"><path
             id="path776"
             style="fill:#100f0d;fill-opacity:1;fill-rule:nonzero;stroke:none"
             d="m 0,0 h 0.67 v -0.67 h 0.018 c 0.202,0.316 0.718,0.804 1.608,0.804 0.641,0 1.177,-0.162 1.655,-0.641 0.393,-0.383 0.651,-0.985 0.651,-1.847 v -2.879 h -0.67 v 2.879 c 0,0.679 -0.21,1.158 -0.497,1.435 -0.364,0.355 -0.842,0.45 -1.139,0.45 -0.297,0 -0.775,-0.095 -1.139,-0.45 C 0.87,-1.196 0.66,-1.675 0.67,-2.354 V -5.233 H 0 Z" /></g><path
           id="path778"
           style="fill:#100f0d;fill-opacity:1;fill-rule:nonzero;stroke:none"
           d="m 176.491,28.3 h 0.67 v -5.233 h -0.67 z m 0,1.846 h 0.67 V 28.94 h -0.67 z" /><g
           transform="translate(178.4053,28.2998)"
           id="g780"><path
             id="path782"
             style="fill:#100f0d;fill-opacity:1;fill-rule:nonzero;stroke:none"
             d="m 0,0 h 0.67 v -0.67 h 0.018 c 0.202,0.316 0.718,0.804 1.608,0.804 0.641,0 1.177,-0.162 1.655,-0.641 0.393,-0.383 0.651,-0.985 0.651,-1.847 v -2.879 h -0.67 v 2.879 c 0,0.679 -0.21,1.158 -0.497,1.435 -0.364,0.355 -0.842,0.45 -1.139,0.45 -0.297,0 -0.775,-0.095 -1.139,-0.45 C 0.87,-1.196 0.66,-1.675 0.67,-2.354 V -5.233 H 0 Z" /></g><g
           transform="translate(186.7109,23.5449)"
           id="g784"><path
             id="path786"
             style="fill:#100f0d;fill-opacity:1;fill-rule:nonzero;stroke:none"
             d="M 0,0 C 1.388,0 2.076,1.243 2.076,2.134 2.076,3.281 1.177,4.286 0,4.286 -1.186,4.286 -2.066,3.281 -2.066,2.134 -2.066,0.995 -1.186,0 0,0 m 2.708,0.345 c 0,-0.565 0,-1.273 -0.479,-1.914 -0.66,-0.918 -1.865,-0.966 -2.076,-0.966 -0.746,0 -2.2,0.287 -2.678,1.923 h 0.708 c 0.171,-0.431 0.688,-1.321 1.961,-1.321 0.88,0 1.894,0.507 1.894,1.952 v 0.46 H 2.02 C 1.627,-0.268 0.766,-0.603 0,-0.603 c -1.377,0 -2.736,1.072 -2.736,2.717 0,1.665 1.359,2.775 2.736,2.775 0.479,0 1.416,-0.144 2.02,-1.072 h 0.018 v 0.938 h 0.67 z" /></g><g
           transform="translate(88.9834,45.7217)"
           id="g788"><path
             id="path790"
             style="fill:none;stroke:#100f0d;stroke-width:1;stroke-linecap:round;stroke-linejoin:miter;stroke-miterlimit:10;stroke-dasharray:none;stroke-opacity:1"
             d="M 0,0 H 119.207" /></g><g
           transform="translate(25.2256,57.9727)"
           id="g792"><path
             id="path794"
             style="fill:#94d222;fill-opacity:1;fill-rule:nonzero;stroke:none"
             d="m 0,0 c 0,-0.682 -0.553,-1.235 -1.235,-1.235 h -8.4 c -0.682,0 -1.236,0.553 -1.236,1.235 v 8.4 c 0,0.683 0.554,1.236 1.236,1.236 h 8.4 C -0.553,9.636 0,9.083 0,8.4 Z" /></g><g
           transform="translate(35.6738,68.8438)"
           id="g796"><path
             id="path798"
             style="fill:#2a419e;fill-opacity:1;fill-rule:nonzero;stroke:none"
             d="m 0,0 c 0,-0.682 -0.554,-1.235 -1.235,-1.235 h -7.11 c -0.682,0 -1.236,0.553 -1.236,1.235 v 7.11 c 0,0.682 0.554,1.235 1.236,1.235 h 7.11 C -0.554,8.345 0,7.792 0,7.11 Z" /></g><g
           transform="translate(23.3193,75.0635)"
           id="g800"><path
             id="path802"
             style="fill:#ed1e24;fill-opacity:1;fill-rule:nonzero;stroke:none"
             d="m 0,0 c 0,-0.683 -0.553,-1.235 -1.234,-1.235 h -4.924 c -0.682,0 -1.236,0.552 -1.236,1.235 v 4.923 c 0,0.682 0.554,1.236 1.236,1.236 h 4.924 C -0.553,6.159 0,5.605 0,4.923 Z" /></g><g
           transform="translate(12.9688,69.1479)"
           id="g804"><path
             id="path806"
             style="fill:#f79011;fill-opacity:1;fill-rule:nonzero;stroke:none"
             d="M 0,0 C 0,-0.682 -0.554,-1.235 -1.236,-1.235 H -4.68 c -0.682,0 -1.236,0.553 -1.236,1.235 v 3.444 c 0,0.683 0.554,1.236 1.236,1.236 h 3.444 C -0.554,4.68 0,4.127 0,3.444 Z" /></g><g
           transform="translate(60.2002,72.3828)"
           id="g808"><path
             id="path810"
             style="fill:#231f20;fill-opacity:1;fill-rule:nonzero;stroke:none"
             d="m 0,0 c 0,-0.682 -0.554,-1.235 -1.235,-1.235 h -1.412 c -0.682,0 -1.236,0.553 -1.236,1.235 v 1.412 c 0,0.682 0.554,1.234 1.236,1.234 h 1.412 C -0.554,2.646 0,2.094 0,1.412 Z m -1.479,-10.26 c 0,-0.682 -0.553,-1.235 -1.236,-1.235 h -4.553 c -0.682,0 -1.236,0.553 -1.236,1.235 v 4.554 c 0,0.683 0.554,1.236 1.236,1.236 h 4.553 c 0.683,0 1.236,-0.553 1.236,-1.236 z m -8.596,-10.629 c 0,-0.681 -0.554,-1.235 -1.236,-1.235 h -8.159 c -0.681,0 -1.234,0.554 -1.234,1.235 v 8.159 c 0,0.682 0.553,1.235 1.234,1.235 h 8.159 c 0.682,0 1.236,-0.553 1.236,-1.235 z m -2.033,27.753 c 0,0.683 0.552,1.236 1.234,1.236 h 2.983 c 0.682,0 1.236,-0.553 1.236,-1.236 V 3.882 c 0,-0.682 -0.554,-1.236 -1.236,-1.236 h -2.983 c -0.682,0 -1.234,0.554 -1.234,1.236 z M 10.446,-13.423 C 9.674,-13.81 9.48,-14.003 9.48,-12.94 v 6.275 c 0,1.452 0.548,20.951 -21.916,20.951 -6.089,0 -11.648,-1.545 -11.648,-2.994 0,-1.448 -0.033,-3.475 -0.033,-4.634 0,-1.244 0.675,-1.852 1.641,-1.852 h 5.6 c 0.677,0 1.737,-0.071 1.737,-1.265 v -6.248 c 0,-1.641 -0.809,-1.858 -1.678,-1.858 h -5.792 c -0.869,0 -1.702,-0.459 -1.702,-1.521 v -5.873 c 0,-0.854 -0.385,-1.561 -1.64,-1.561 h -5.813 c -0.772,0 -1.606,-0.964 -1.606,-2.412 0,-1.448 -0.016,-4.443 -0.016,-5.312 0,-0.869 -0.772,-0.772 -2.703,-0.772 0,0 0,-2.799 1.255,-5.986 0.671,-1.704 1.738,-2.123 3.572,-1.544 0,0 0.222,-4.619 1.284,-7.515 1.062,-2.896 1.999,-4.748 4.992,-6.871 2.994,-2.125 3.283,-2.704 5.31,-4.345 2.027,-1.642 2.896,-3.186 8.014,-3.186 5.213,0 6.468,2.027 8.592,4.151 2.124,2.125 4.56,2.207 7.53,6.663 2.511,3.765 2.647,6.812 2.993,11.2 0,0 2.704,-1.352 3.573,1.351 0.532,1.657 2.123,9.075 2.703,13.033 0.579,3.959 -2.51,2.028 -3.283,1.642" /></g></g></g></g></svg>
